<?xml version="1.0" standalone="no"?>
<!DOCTYPE svg PUBLIC "-//W3C//DTD SVG 1.1//EN" "http://www.w3.org/Graphics/SVG/1.1/DTD/svg11.dtd">
<svg width="800" height="600" version="1.1" xmlns="http://www.w3.org/2000/svg">
<rect width="800" height="600" x="0" y="0" style="fill:rgb(238,238,238);stroke:none"/>
<rect width="800" height="600" x="0" y="0" style="fill:rgb(255,255,255);stroke:none"/>
<text x="2" y="566" fill="rgb(0,0,0)" font-family="Arial" font-size="12">0</text>
<text x="2" y="508" fill="rgb(0,0,0)" font-family="Arial" font-size="12">250000</text>
<text x="2" y="449" fill="rgb(0,0,0)" font-family="Arial" font-size="12">500000</text>
<text x="2" y="390" fill="rgb(0,0,0)" font-family="Arial" font-size="12">750000</text>
<text x="2" y="332" fill="rgb(0,0,0)" font-family="Arial" font-size="12">1000000</text>
<text x="2" y="273" fill="rgb(0,0,0)" font-family="Arial" font-size="12">1250000</text>
<text x="2" y="214" fill="rgb(0,0,0)" font-family="Arial" font-size="12">1500000</text>
<text x="2" y="156" fill="rgb(0,0,0)" font-family="Arial" font-size="12">1750000</text>
<text x="2" y="97" fill="rgb(0,0,0)" font-family="Arial" font-size="12">2000000</text>
<text x="318" y="30" fill="rgb(0,0,0)" font-family="Arial" font-size="12">GC distribution over all sequences</text>
<line x1="61" y1="560" x2="790" y2="560" stroke="rgb(0,0,0)" stroke-width="1"/>
<line x1="61" y1="560" x2="61" y2="40" stroke="rgb(0,0,0)" stroke-width="1"/>
<text x="334" y="595" fill="rgb(0,0,0)" font-family="Arial" font-size="12">Mean GC content (%)</text>
<text x="60" y="575" fill="rgb(0,0,0)" font-family="Arial" font-size="12">0</text>
<rect width="7" height="520" x="68" y="40" style="fill:rgb(230,230,230);stroke:none"/>
<text x="74" y="575" fill="rgb(0,0,0)" font-family="Arial" font-size="12">2</text>
<rect width="7" height="520" x="82" y="40" style="fill:rgb(230,230,230);stroke:none"/>
<text x="88" y="575" fill="rgb(0,0,0)" font-family="Arial" font-size="12">4</text>
<rect width="7" height="520" x="96" y="40" style="fill:rgb(230,230,230);stroke:none"/>
<text x="102" y="575" fill="rgb(0,0,0)" font-family="Arial" font-size="12">6</text>
<rect width="7" height="520" x="110" y="40" style="fill:rgb(230,230,230);stroke:none"/>
<text x="116" y="575" fill="rgb(0,0,0)" font-family="Arial" font-size="12">8</text>
<rect width="7" height="520" x="124" y="40" style="fill:rgb(230,230,230);stroke:none"/>
<rect width="7" height="520" x="138" y="40" style="fill:rgb(230,230,230);stroke:none"/>
<text x="133" y="575" fill="rgb(0,0,0)" font-family="Arial" font-size="12">11</text>
<rect width="7" height="520" x="152" y="40" style="fill:rgb(230,230,230);stroke:none"/>
<rect width="7" height="520" x="166" y="40" style="fill:rgb(230,230,230);stroke:none"/>
<text x="161" y="575" fill="rgb(0,0,0)" font-family="Arial" font-size="12">15</text>
<rect width="7" height="520" x="180" y="40" style="fill:rgb(230,230,230);stroke:none"/>
<rect width="7" height="520" x="194" y="40" style="fill:rgb(230,230,230);stroke:none"/>
<text x="189" y="575" fill="rgb(0,0,0)" font-family="Arial" font-size="12">19</text>
<rect width="7" height="520" x="208" y="40" style="fill:rgb(230,230,230);stroke:none"/>
<rect width="7" height="520" x="222" y="40" style="fill:rgb(230,230,230);stroke:none"/>
<text x="217" y="575" fill="rgb(0,0,0)" font-family="Arial" font-size="12">23</text>
<rect width="7" height="520" x="236" y="40" style="fill:rgb(230,230,230);stroke:none"/>
<rect width="7" height="520" x="250" y="40" style="fill:rgb(230,230,230);stroke:none"/>
<text x="245" y="575" fill="rgb(0,0,0)" font-family="Arial" font-size="12">27</text>
<rect width="7" height="520" x="264" y="40" style="fill:rgb(230,230,230);stroke:none"/>
<rect width="7" height="520" x="278" y="40" style="fill:rgb(230,230,230);stroke:none"/>
<text x="273" y="575" fill="rgb(0,0,0)" font-family="Arial" font-size="12">31</text>
<rect width="7" height="520" x="292" y="40" style="fill:rgb(230,230,230);stroke:none"/>
<rect width="7" height="520" x="306" y="40" style="fill:rgb(230,230,230);stroke:none"/>
<text x="301" y="575" fill="rgb(0,0,0)" font-family="Arial" font-size="12">35</text>
<rect width="7" height="520" x="320" y="40" style="fill:rgb(230,230,230);stroke:none"/>
<rect width="7" height="520" x="334" y="40" style="fill:rgb(230,230,230);stroke:none"/>
<text x="329" y="575" fill="rgb(0,0,0)" font-family="Arial" font-size="12">39</text>
<rect width="7" height="520" x="348" y="40" style="fill:rgb(230,230,230);stroke:none"/>
<rect width="7" height="520" x="362" y="40" style="fill:rgb(230,230,230);stroke:none"/>
<text x="357" y="575" fill="rgb(0,0,0)" font-family="Arial" font-size="12">43</text>
<rect width="7" height="520" x="376" y="40" style="fill:rgb(230,230,230);stroke:none"/>
<rect width="7" height="520" x="390" y="40" style="fill:rgb(230,230,230);stroke:none"/>
<text x="385" y="575" fill="rgb(0,0,0)" font-family="Arial" font-size="12">47</text>
<rect width="7" height="520" x="404" y="40" style="fill:rgb(230,230,230);stroke:none"/>
<rect width="7" height="520" x="418" y="40" style="fill:rgb(230,230,230);stroke:none"/>
<text x="413" y="575" fill="rgb(0,0,0)" font-family="Arial" font-size="12">51</text>
<rect width="7" height="520" x="432" y="40" style="fill:rgb(230,230,230);stroke:none"/>
<rect width="7" height="520" x="446" y="40" style="fill:rgb(230,230,230);stroke:none"/>
<text x="441" y="575" fill="rgb(0,0,0)" font-family="Arial" font-size="12">55</text>
<rect width="7" height="520" x="460" y="40" style="fill:rgb(230,230,230);stroke:none"/>
<rect width="7" height="520" x="474" y="40" style="fill:rgb(230,230,230);stroke:none"/>
<text x="469" y="575" fill="rgb(0,0,0)" font-family="Arial" font-size="12">59</text>
<rect width="7" height="520" x="488" y="40" style="fill:rgb(230,230,230);stroke:none"/>
<rect width="7" height="520" x="502" y="40" style="fill:rgb(230,230,230);stroke:none"/>
<text x="497" y="575" fill="rgb(0,0,0)" font-family="Arial" font-size="12">63</text>
<rect width="7" height="520" x="516" y="40" style="fill:rgb(230,230,230);stroke:none"/>
<rect width="7" height="520" x="530" y="40" style="fill:rgb(230,230,230);stroke:none"/>
<text x="525" y="575" fill="rgb(0,0,0)" font-family="Arial" font-size="12">67</text>
<rect width="7" height="520" x="544" y="40" style="fill:rgb(230,230,230);stroke:none"/>
<rect width="7" height="520" x="558" y="40" style="fill:rgb(230,230,230);stroke:none"/>
<text x="553" y="575" fill="rgb(0,0,0)" font-family="Arial" font-size="12">71</text>
<rect width="7" height="520" x="572" y="40" style="fill:rgb(230,230,230);stroke:none"/>
<rect width="7" height="520" x="586" y="40" style="fill:rgb(230,230,230);stroke:none"/>
<text x="581" y="575" fill="rgb(0,0,0)" font-family="Arial" font-size="12">75</text>
<rect width="7" height="520" x="600" y="40" style="fill:rgb(230,230,230);stroke:none"/>
<rect width="7" height="520" x="614" y="40" style="fill:rgb(230,230,230);stroke:none"/>
<text x="609" y="575" fill="rgb(0,0,0)" font-family="Arial" font-size="12">79</text>
<rect width="7" height="520" x="628" y="40" style="fill:rgb(230,230,230);stroke:none"/>
<rect width="7" height="520" x="642" y="40" style="fill:rgb(230,230,230);stroke:none"/>
<text x="637" y="575" fill="rgb(0,0,0)" font-family="Arial" font-size="12">83</text>
<rect width="7" height="520" x="656" y="40" style="fill:rgb(230,230,230);stroke:none"/>
<rect width="7" height="520" x="670" y="40" style="fill:rgb(230,230,230);stroke:none"/>
<text x="665" y="575" fill="rgb(0,0,0)" font-family="Arial" font-size="12">87</text>
<rect width="7" height="520" x="684" y="40" style="fill:rgb(230,230,230);stroke:none"/>
<rect width="7" height="520" x="698" y="40" style="fill:rgb(230,230,230);stroke:none"/>
<text x="693" y="575" fill="rgb(0,0,0)" font-family="Arial" font-size="12">91</text>
<rect width="7" height="520" x="712" y="40" style="fill:rgb(230,230,230);stroke:none"/>
<rect width="7" height="520" x="726" y="40" style="fill:rgb(230,230,230);stroke:none"/>
<text x="721" y="575" fill="rgb(0,0,0)" font-family="Arial" font-size="12">95</text>
<rect width="7" height="520" x="740" y="40" style="fill:rgb(230,230,230);stroke:none"/>
<rect width="7" height="520" x="754" y="40" style="fill:rgb(230,230,230);stroke:none"/>
<text x="749" y="575" fill="rgb(0,0,0)" font-family="Arial" font-size="12">99</text>
<line x1="61" y1="560" x2="790" y2="560" stroke="rgb(180,180,180)" stroke-width="1"/>
<line x1="61" y1="502" x2="790" y2="502" stroke="rgb(180,180,180)" stroke-width="1"/>
<line x1="61" y1="443" x2="790" y2="443" stroke="rgb(180,180,180)" stroke-width="1"/>
<line x1="61" y1="384" x2="790" y2="384" stroke="rgb(180,180,180)" stroke-width="1"/>
<line x1="61" y1="326" x2="790" y2="326" stroke="rgb(180,180,180)" stroke-width="1"/>
<line x1="61" y1="267" x2="790" y2="267" stroke="rgb(180,180,180)" stroke-width="1"/>
<line x1="61" y1="208" x2="790" y2="208" stroke="rgb(180,180,180)" stroke-width="1"/>
<line x1="61" y1="150" x2="790" y2="150" stroke="rgb(180,180,180)" stroke-width="1"/>
<line x1="61" y1="91" x2="790" y2="91" stroke="rgb(180,180,180)" stroke-width="1"/>
<line x1="64" y1="560" x2="71" y2="560" stroke="rgb(136,34,85)" stroke-width="1"/>
<line x1="71" y1="560" x2="78" y2="560" stroke="rgb(136,34,85)" stroke-width="1"/>
<line x1="78" y1="560" x2="85" y2="560" stroke="rgb(136,34,85)" stroke-width="1"/>
<line x1="85" y1="560" x2="92" y2="560" stroke="rgb(136,34,85)" stroke-width="1"/>
<line x1="92" y1="560" x2="99" y2="560" stroke="rgb(136,34,85)" stroke-width="1"/>
<line x1="99" y1="560" x2="106" y2="560" stroke="rgb(136,34,85)" stroke-width="1"/>
<line x1="106" y1="560" x2="113" y2="560" stroke="rgb(136,34,85)" stroke-width="1"/>
<line x1="113" y1="560" x2="120" y2="560" stroke="rgb(136,34,85)" stroke-width="1"/>
<line x1="120" y1="560" x2="127" y2="560" stroke="rgb(136,34,85)" stroke-width="1"/>
<line x1="127" y1="560" x2="134" y2="560" stroke="rgb(136,34,85)" stroke-width="1"/>
<line x1="134" y1="560" x2="141" y2="560" stroke="rgb(136,34,85)" stroke-width="1"/>
<line x1="141" y1="560" x2="148" y2="559" stroke="rgb(136,34,85)" stroke-width="1"/>
<line x1="148" y1="559" x2="155" y2="559" stroke="rgb(136,34,85)" stroke-width="1"/>
<line x1="155" y1="559" x2="162" y2="558" stroke="rgb(136,34,85)" stroke-width="1"/>
<line x1="162" y1="558" x2="169" y2="557" stroke="rgb(136,34,85)" stroke-width="1"/>
<line x1="169" y1="557" x2="176" y2="555" stroke="rgb(136,34,85)" stroke-width="1"/>
<line x1="176" y1="555" x2="183" y2="549" stroke="rgb(136,34,85)" stroke-width="1"/>
<line x1="183" y1="549" x2="190" y2="544" stroke="rgb(136,34,85)" stroke-width="1"/>
<line x1="190" y1="544" x2="197" y2="538" stroke="rgb(136,34,85)" stroke-width="1"/>
<line x1="197" y1="538" x2="204" y2="532" stroke="rgb(136,34,85)" stroke-width="1"/>
<line x1="204" y1="532" x2="211" y2="523" stroke="rgb(136,34,85)" stroke-width="1"/>
<line x1="211" y1="523" x2="218" y2="513" stroke="rgb(136,34,85)" stroke-width="1"/>
<line x1="218" y1="513" x2="225" y2="504" stroke="rgb(136,34,85)" stroke-width="1"/>
<line x1="225" y1="504" x2="232" y2="496" stroke="rgb(136,34,85)" stroke-width="1"/>
<line x1="232" y1="496" x2="239" y2="477" stroke="rgb(136,34,85)" stroke-width="1"/>
<line x1="239" y1="477" x2="246" y2="422" stroke="rgb(136,34,85)" stroke-width="1"/>
<line x1="246" y1="422" x2="253" y2="386" stroke="rgb(136,34,85)" stroke-width="1"/>
<line x1="253" y1="386" x2="260" y2="351" stroke="rgb(136,34,85)" stroke-width="1"/>
<line x1="260" y1="351" x2="267" y2="317" stroke="rgb(136,34,85)" stroke-width="1"/>
<line x1="267" y1="317" x2="274" y2="292" stroke="rgb(136,34,85)" stroke-width="1"/>
<line x1="274" y1="292" x2="281" y2="267" stroke="rgb(136,34,85)" stroke-width="1"/>
<line x1="281" y1="267" x2="288" y2="228" stroke="rgb(136,34,85)" stroke-width="1"/>
<line x1="288" y1="228" x2="295" y2="189" stroke="rgb(136,34,85)" stroke-width="1"/>
<line x1="295" y1="189" x2="302" y2="153" stroke="rgb(136,34,85)" stroke-width="1"/>
<line x1="302" y1="153" x2="309" y2="116" stroke="rgb(136,34,85)" stroke-width="1"/>
<line x1="309" y1="116" x2="316" y2="95" stroke="rgb(136,34,85)" stroke-width="1"/>
<line x1="316" y1="95" x2="323" y2="73" stroke="rgb(136,34,85)" stroke-width="1"/>
<line x1="323" y1="73" x2="330" y2="59" stroke="rgb(136,34,85)" stroke-width="1"/>
<line x1="330" y1="59" x2="337" y2="45" stroke="rgb(136,34,85)" stroke-width="1"/>
<line x1="337" y1="45" x2="344" y2="43" stroke="rgb(136,34,85)" stroke-width="1"/>
<line x1="344" y1="43" x2="351" y2="40" stroke="rgb(136,34,85)" stroke-width="1"/>
<line x1="351" y1="40" x2="358" y2="60" stroke="rgb(136,34,85)" stroke-width="1"/>
<line x1="358" y1="60" x2="365" y2="80" stroke="rgb(136,34,85)" stroke-width="1"/>
<line x1="365" y1="80" x2="372" y2="103" stroke="rgb(136,34,85)" stroke-width="1"/>
<line x1="372" y1="103" x2="379" y2="125" stroke="rgb(136,34,85)" stroke-width="1"/>
<line x1="379" y1="125" x2="386" y2="137" stroke="rgb(136,34,85)" stroke-width="1"/>
<line x1="386" y1="137" x2="393" y2="149" stroke="rgb(136,34,85)" stroke-width="1"/>
<line x1="393" y1="149" x2="400" y2="167" stroke="rgb(136,34,85)" stroke-width="1"/>
<line x1="400" y1="167" x2="407" y2="184" stroke="rgb(136,34,85)" stroke-width="1"/>
<line x1="407" y1="184" x2="414" y2="207" stroke="rgb(136,34,85)" stroke-width="1"/>
<line x1="414" y1="207" x2="421" y2="231" stroke="rgb(136,34,85)" stroke-width="1"/>
<line x1="421" y1="231" x2="428" y2="239" stroke="rgb(136,34,85)" stroke-width="1"/>
<line x1="428" y1="239" x2="435" y2="247" stroke="rgb(136,34,85)" stroke-width="1"/>
<line x1="435" y1="247" x2="442" y2="277" stroke="rgb(136,34,85)" stroke-width="1"/>
<line x1="442" y1="277" x2="449" y2="308" stroke="rgb(136,34,85)" stroke-width="1"/>
<line x1="449" y1="308" x2="456" y2="324" stroke="rgb(136,34,85)" stroke-width="1"/>
<line x1="456" y1="324" x2="463" y2="341" stroke="rgb(136,34,85)" stroke-width="1"/>
<line x1="463" y1="341" x2="470" y2="353" stroke="rgb(136,34,85)" stroke-width="1"/>
<line x1="470" y1="353" x2="477" y2="365" stroke="rgb(136,34,85)" stroke-width="1"/>
<line x1="477" y1="365" x2="484" y2="376" stroke="rgb(136,34,85)" stroke-width="1"/>
<line x1="484" y1="376" x2="491" y2="387" stroke="rgb(136,34,85)" stroke-width="1"/>
<line x1="491" y1="387" x2="498" y2="396" stroke="rgb(136,34,85)" stroke-width="1"/>
<line x1="498" y1="396" x2="505" y2="405" stroke="rgb(136,34,85)" stroke-width="1"/>
<line x1="505" y1="405" x2="512" y2="414" stroke="rgb(136,34,85)" stroke-width="1"/>
<line x1="512" y1="414" x2="519" y2="422" stroke="rgb(136,34,85)" stroke-width="1"/>
<line x1="519" y1="422" x2="526" y2="429" stroke="rgb(136,34,85)" stroke-width="1"/>
<line x1="526" y1="429" x2="533" y2="436" stroke="rgb(136,34,85)" stroke-width="1"/>
<line x1="533" y1="436" x2="540" y2="442" stroke="rgb(136,34,85)" stroke-width="1"/>
<line x1="540" y1="442" x2="547" y2="448" stroke="rgb(136,34,85)" stroke-width="1"/>
<line x1="547" y1="448" x2="554" y2="453" stroke="rgb(136,34,85)" stroke-width="1"/>
<line x1="554" y1="453" x2="561" y2="459" stroke="rgb(136,34,85)" stroke-width="1"/>
<line x1="561" y1="459" x2="568" y2="465" stroke="rgb(136,34,85)" stroke-width="1"/>
<line x1="568" y1="465" x2="575" y2="471" stroke="rgb(136,34,85)" stroke-width="1"/>
<line x1="575" y1="471" x2="582" y2="476" stroke="rgb(136,34,85)" stroke-width="1"/>
<line x1="582" y1="476" x2="589" y2="487" stroke="rgb(136,34,85)" stroke-width="1"/>
<line x1="589" y1="487" x2="596" y2="492" stroke="rgb(136,34,85)" stroke-width="1"/>
<line x1="596" y1="492" x2="603" y2="498" stroke="rgb(136,34,85)" stroke-width="1"/>
<line x1="603" y1="498" x2="610" y2="504" stroke="rgb(136,34,85)" stroke-width="1"/>
<line x1="610" y1="504" x2="617" y2="510" stroke="rgb(136,34,85)" stroke-width="1"/>
<line x1="617" y1="510" x2="624" y2="515" stroke="rgb(136,34,85)" stroke-width="1"/>
<line x1="624" y1="515" x2="631" y2="521" stroke="rgb(136,34,85)" stroke-width="1"/>
<line x1="631" y1="521" x2="638" y2="526" stroke="rgb(136,34,85)" stroke-width="1"/>
<line x1="638" y1="526" x2="645" y2="531" stroke="rgb(136,34,85)" stroke-width="1"/>
<line x1="645" y1="531" x2="652" y2="535" stroke="rgb(136,34,85)" stroke-width="1"/>
<line x1="652" y1="535" x2="659" y2="540" stroke="rgb(136,34,85)" stroke-width="1"/>
<line x1="659" y1="540" x2="666" y2="544" stroke="rgb(136,34,85)" stroke-width="1"/>
<line x1="666" y1="544" x2="673" y2="547" stroke="rgb(136,34,85)" stroke-width="1"/>
<line x1="673" y1="547" x2="680" y2="551" stroke="rgb(136,34,85)" stroke-width="1"/>
<line x1="680" y1="551" x2="687" y2="553" stroke="rgb(136,34,85)" stroke-width="1"/>
<line x1="687" y1="553" x2="694" y2="555" stroke="rgb(136,34,85)" stroke-width="1"/>
<line x1="694" y1="555" x2="701" y2="557" stroke="rgb(136,34,85)" stroke-width="1"/>
<line x1="701" y1="557" x2="708" y2="558" stroke="rgb(136,34,85)" stroke-width="1"/>
<line x1="708" y1="558" x2="715" y2="559" stroke="rgb(136,34,85)" stroke-width="1"/>
<line x1="715" y1="559" x2="722" y2="559" stroke="rgb(136,34,85)" stroke-width="1"/>
<line x1="722" y1="559" x2="729" y2="560" stroke="rgb(136,34,85)" stroke-width="1"/>
<line x1="729" y1="560" x2="736" y2="560" stroke="rgb(136,34,85)" stroke-width="1"/>
<line x1="736" y1="560" x2="743" y2="560" stroke="rgb(136,34,85)" stroke-width="1"/>
<line x1="743" y1="560" x2="750" y2="560" stroke="rgb(136,34,85)" stroke-width="1"/>
<line x1="750" y1="560" x2="757" y2="560" stroke="rgb(136,34,85)" stroke-width="1"/>
<line x1="757" y1="560" x2="764" y2="560" stroke="rgb(136,34,85)" stroke-width="1"/>
<line x1="64" y1="550" x2="71" y2="548" stroke="rgb(51,34,136)" stroke-width="1"/>
<line x1="71" y1="548" x2="78" y2="545" stroke="rgb(51,34,136)" stroke-width="1"/>
<line x1="78" y1="545" x2="85" y2="543" stroke="rgb(51,34,136)" stroke-width="1"/>
<line x1="85" y1="543" x2="92" y2="539" stroke="rgb(51,34,136)" stroke-width="1"/>
<line x1="92" y1="539" x2="99" y2="536" stroke="rgb(51,34,136)" stroke-width="1"/>
<line x1="99" y1="536" x2="106" y2="531" stroke="rgb(51,34,136)" stroke-width="1"/>
<line x1="106" y1="531" x2="113" y2="527" stroke="rgb(51,34,136)" stroke-width="1"/>
<line x1="113" y1="527" x2="120" y2="521" stroke="rgb(51,34,136)" stroke-width="1"/>
<line x1="120" y1="521" x2="127" y2="515" stroke="rgb(51,34,136)" stroke-width="1"/>
<line x1="127" y1="515" x2="134" y2="508" stroke="rgb(51,34,136)" stroke-width="1"/>
<line x1="134" y1="508" x2="141" y2="501" stroke="rgb(51,34,136)" stroke-width="1"/>
<line x1="141" y1="501" x2="148" y2="493" stroke="rgb(51,34,136)" stroke-width="1"/>
<line x1="148" y1="493" x2="155" y2="484" stroke="rgb(51,34,136)" stroke-width="1"/>
<line x1="155" y1="484" x2="162" y2="474" stroke="rgb(51,34,136)" stroke-width="1"/>
<line x1="162" y1="474" x2="169" y2="463" stroke="rgb(51,34,136)" stroke-width="1"/>
<line x1="169" y1="463" x2="176" y2="452" stroke="rgb(51,34,136)" stroke-width="1"/>
<line x1="176" y1="452" x2="183" y2="440" stroke="rgb(51,34,136)" stroke-width="1"/>
<line x1="183" y1="440" x2="190" y2="426" stroke="rgb(51,34,136)" stroke-width="1"/>
<line x1="190" y1="426" x2="197" y2="413" stroke="rgb(51,34,136)" stroke-width="1"/>
<line x1="197" y1="413" x2="204" y2="398" stroke="rgb(51,34,136)" stroke-width="1"/>
<line x1="204" y1="398" x2="211" y2="383" stroke="rgb(51,34,136)" stroke-width="1"/>
<line x1="211" y1="383" x2="218" y2="368" stroke="rgb(51,34,136)" stroke-width="1"/>
<line x1="218" y1="368" x2="225" y2="352" stroke="rgb(51,34,136)" stroke-width="1"/>
<line x1="225" y1="352" x2="232" y2="335" stroke="rgb(51,34,136)" stroke-width="1"/>
<line x1="232" y1="335" x2="239" y2="319" stroke="rgb(51,34,136)" stroke-width="1"/>
<line x1="239" y1="319" x2="246" y2="303" stroke="rgb(51,34,136)" stroke-width="1"/>
<line x1="246" y1="303" x2="253" y2="286" stroke="rgb(51,34,136)" stroke-width="1"/>
<line x1="253" y1="286" x2="260" y2="270" stroke="rgb(51,34,136)" stroke-width="1"/>
<line x1="260" y1="270" x2="267" y2="255" stroke="rgb(51,34,136)" stroke-width="1"/>
<line x1="267" y1="255" x2="274" y2="240" stroke="rgb(51,34,136)" stroke-width="1"/>
<line x1="274" y1="240" x2="281" y2="226" stroke="rgb(51,34,136)" stroke-width="1"/>
<line x1="281" y1="226" x2="288" y2="212" stroke="rgb(51,34,136)" stroke-width="1"/>
<line x1="288" y1="212" x2="295" y2="200" stroke="rgb(51,34,136)" stroke-width="1"/>
<line x1="295" y1="200" x2="302" y2="189" stroke="rgb(51,34,136)" stroke-width="1"/>
<line x1="302" y1="189" x2="309" y2="180" stroke="rgb(51,34,136)" stroke-width="1"/>
<line x1="309" y1="180" x2="316" y2="172" stroke="rgb(51,34,136)" stroke-width="1"/>
<line x1="316" y1="172" x2="323" y2="166" stroke="rgb(51,34,136)" stroke-width="1"/>
<line x1="323" y1="166" x2="330" y2="161" stroke="rgb(51,34,136)" stroke-width="1"/>
<line x1="330" y1="161" x2="337" y2="159" stroke="rgb(51,34,136)" stroke-width="1"/>
<line x1="337" y1="159" x2="344" y2="158" stroke="rgb(51,34,136)" stroke-width="1"/>
<line x1="344" y1="158" x2="351" y2="159" stroke="rgb(51,34,136)" stroke-width="1"/>
<line x1="351" y1="159" x2="358" y2="161" stroke="rgb(51,34,136)" stroke-width="1"/>
<line x1="358" y1="161" x2="365" y2="166" stroke="rgb(51,34,136)" stroke-width="1"/>
<line x1="365" y1="166" x2="372" y2="172" stroke="rgb(51,34,136)" stroke-width="1"/>
<line x1="372" y1="172" x2="379" y2="180" stroke="rgb(51,34,136)" stroke-width="1"/>
<line x1="379" y1="180" x2="386" y2="189" stroke="rgb(51,34,136)" stroke-width="1"/>
<line x1="386" y1="189" x2="393" y2="200" stroke="rgb(51,34,136)" stroke-width="1"/>
<line x1="393" y1="200" x2="400" y2="212" stroke="rgb(51,34,136)" stroke-width="1"/>
<line x1="400" y1="212" x2="407" y2="226" stroke="rgb(51,34,136)" stroke-width="1"/>
<line x1="407" y1="226" x2="414" y2="240" stroke="rgb(51,34,136)" stroke-width="1"/>
<line x1="414" y1="240" x2="421" y2="255" stroke="rgb(51,34,136)" stroke-width="1"/>
<line x1="421" y1="255" x2="428" y2="270" stroke="rgb(51,34,136)" stroke-width="1"/>
<line x1="428" y1="270" x2="435" y2="286" stroke="rgb(51,34,136)" stroke-width="1"/>
<line x1="435" y1="286" x2="442" y2="303" stroke="rgb(51,34,136)" stroke-width="1"/>
<line x1="442" y1="303" x2="449" y2="319" stroke="rgb(51,34,136)" stroke-width="1"/>
<line x1="449" y1="319" x2="456" y2="335" stroke="rgb(51,34,136)" stroke-width="1"/>
<line x1="456" y1="335" x2="463" y2="352" stroke="rgb(51,34,136)" stroke-width="1"/>
<line x1="463" y1="352" x2="470" y2="368" stroke="rgb(51,34,136)" stroke-width="1"/>
<line x1="470" y1="368" x2="477" y2="383" stroke="rgb(51,34,136)" stroke-width="1"/>
<line x1="477" y1="383" x2="484" y2="398" stroke="rgb(51,34,136)" stroke-width="1"/>
<line x1="484" y1="398" x2="491" y2="413" stroke="rgb(51,34,136)" stroke-width="1"/>
<line x1="491" y1="413" x2="498" y2="426" stroke="rgb(51,34,136)" stroke-width="1"/>
<line x1="498" y1="426" x2="505" y2="440" stroke="rgb(51,34,136)" stroke-width="1"/>
<line x1="505" y1="440" x2="512" y2="452" stroke="rgb(51,34,136)" stroke-width="1"/>
<line x1="512" y1="452" x2="519" y2="463" stroke="rgb(51,34,136)" stroke-width="1"/>
<line x1="519" y1="463" x2="526" y2="474" stroke="rgb(51,34,136)" stroke-width="1"/>
<line x1="526" y1="474" x2="533" y2="484" stroke="rgb(51,34,136)" stroke-width="1"/>
<line x1="533" y1="484" x2="540" y2="493" stroke="rgb(51,34,136)" stroke-width="1"/>
<line x1="540" y1="493" x2="547" y2="501" stroke="rgb(51,34,136)" stroke-width="1"/>
<line x1="547" y1="501" x2="554" y2="508" stroke="rgb(51,34,136)" stroke-width="1"/>
<line x1="554" y1="508" x2="561" y2="515" stroke="rgb(51,34,136)" stroke-width="1"/>
<line x1="561" y1="515" x2="568" y2="521" stroke="rgb(51,34,136)" stroke-width="1"/>
<line x1="568" y1="521" x2="575" y2="527" stroke="rgb(51,34,136)" stroke-width="1"/>
<line x1="575" y1="527" x2="582" y2="531" stroke="rgb(51,34,136)" stroke-width="1"/>
<line x1="582" y1="531" x2="589" y2="536" stroke="rgb(51,34,136)" stroke-width="1"/>
<line x1="589" y1="536" x2="596" y2="539" stroke="rgb(51,34,136)" stroke-width="1"/>
<line x1="596" y1="539" x2="603" y2="543" stroke="rgb(51,34,136)" stroke-width="1"/>
<line x1="603" y1="543" x2="610" y2="545" stroke="rgb(51,34,136)" stroke-width="1"/>
<line x1="610" y1="545" x2="617" y2="548" stroke="rgb(51,34,136)" stroke-width="1"/>
<line x1="617" y1="548" x2="624" y2="550" stroke="rgb(51,34,136)" stroke-width="1"/>
<line x1="624" y1="550" x2="631" y2="552" stroke="rgb(51,34,136)" stroke-width="1"/>
<line x1="631" y1="552" x2="638" y2="553" stroke="rgb(51,34,136)" stroke-width="1"/>
<line x1="638" y1="553" x2="645" y2="554" stroke="rgb(51,34,136)" stroke-width="1"/>
<line x1="645" y1="554" x2="652" y2="556" stroke="rgb(51,34,136)" stroke-width="1"/>
<line x1="652" y1="556" x2="659" y2="556" stroke="rgb(51,34,136)" stroke-width="1"/>
<line x1="659" y1="556" x2="666" y2="557" stroke="rgb(51,34,136)" stroke-width="1"/>
<line x1="666" y1="557" x2="673" y2="558" stroke="rgb(51,34,136)" stroke-width="1"/>
<line x1="673" y1="558" x2="680" y2="558" stroke="rgb(51,34,136)" stroke-width="1"/>
<line x1="680" y1="558" x2="687" y2="559" stroke="rgb(51,34,136)" stroke-width="1"/>
<line x1="687" y1="559" x2="694" y2="559" stroke="rgb(51,34,136)" stroke-width="1"/>
<line x1="694" y1="559" x2="701" y2="559" stroke="rgb(51,34,136)" stroke-width="1"/>
<line x1="701" y1="559" x2="708" y2="560" stroke="rgb(51,34,136)" stroke-width="1"/>
<line x1="708" y1="560" x2="715" y2="560" stroke="rgb(51,34,136)" stroke-width="1"/>
<line x1="715" y1="560" x2="722" y2="560" stroke="rgb(51,34,136)" stroke-width="1"/>
<line x1="722" y1="560" x2="729" y2="560" stroke="rgb(51,34,136)" stroke-width="1"/>
<line x1="729" y1="560" x2="736" y2="560" stroke="rgb(51,34,136)" stroke-width="1"/>
<line x1="736" y1="560" x2="743" y2="560" stroke="rgb(51,34,136)" stroke-width="1"/>
<line x1="743" y1="560" x2="750" y2="560" stroke="rgb(51,34,136)" stroke-width="1"/>
<line x1="750" y1="560" x2="757" y2="560" stroke="rgb(51,34,136)" stroke-width="1"/>
<line x1="757" y1="560" x2="764" y2="560" stroke="rgb(51,34,136)" stroke-width="1"/>
<rect width="174" height="43" x="616" y="40" style="fill:rgb(255,255,255);stroke:none"/>
<rect width="174" height="43" x="616" y="40" rx="0" ry="0" style="fill:none;stroke-width:1;stroke:rgb(192,192,192)"/>
<text x="619" y="55" fill="rgb(136,34,85)" font-family="Arial" font-size="12" font-weight="bold">GC count per read</text>
<text x="619" y="75" fill="rgb(51,34,136)" font-family="Arial" font-size="12" font-weight="bold">Theoretical Distribution</text>
</svg>
