<?xml version="1.0" standalone="no"?>
<!DOCTYPE svg PUBLIC "-//W3C//DTD SVG 1.1//EN" "http://www.w3.org/Graphics/SVG/1.1/DTD/svg11.dtd">
<svg width="800" height="600" version="1.1" xmlns="http://www.w3.org/2000/svg">
<rect width="800" height="600" x="0" y="0" style="fill:rgb(238,238,238);stroke:none"/>
<rect width="800" height="600" x="0" y="0" style="fill:rgb(255,255,255);stroke:none"/>
<text x="2" y="566" fill="rgb(0,0,0)" font-family="Arial" font-size="12">0</text>
<text x="2" y="513" fill="rgb(0,0,0)" font-family="Arial" font-size="12">500000</text>
<text x="2" y="459" fill="rgb(0,0,0)" font-family="Arial" font-size="12">1000000</text>
<text x="2" y="406" fill="rgb(0,0,0)" font-family="Arial" font-size="12">1500000</text>
<text x="2" y="352" fill="rgb(0,0,0)" font-family="Arial" font-size="12">2000000</text>
<text x="2" y="299" fill="rgb(0,0,0)" font-family="Arial" font-size="12">2500000</text>
<text x="2" y="245" fill="rgb(0,0,0)" font-family="Arial" font-size="12">3000000</text>
<text x="2" y="192" fill="rgb(0,0,0)" font-family="Arial" font-size="12">3500000</text>
<text x="2" y="138" fill="rgb(0,0,0)" font-family="Arial" font-size="12">4000000</text>
<text x="2" y="84" fill="rgb(0,0,0)" font-family="Arial" font-size="12">4500000</text>
<text x="286" y="30" fill="rgb(0,0,0)" font-family="Arial" font-size="12">Quality score distribution over all sequences</text>
<line x1="61" y1="560" x2="790" y2="560" stroke="rgb(0,0,0)" stroke-width="1"/>
<line x1="61" y1="560" x2="61" y2="40" stroke="rgb(0,0,0)" stroke-width="1"/>
<text x="281" y="595" fill="rgb(0,0,0)" font-family="Arial" font-size="12">Mean Sequence Quality (Phred Score)</text>
<text x="66" y="575" fill="rgb(0,0,0)" font-family="Arial" font-size="12">14</text>
<rect width="27" height="520" x="88" y="40" style="fill:rgb(230,230,230);stroke:none"/>
<text x="93" y="575" fill="rgb(0,0,0)" font-family="Arial" font-size="12">15</text>
<text x="120" y="575" fill="rgb(0,0,0)" font-family="Arial" font-size="12">16</text>
<rect width="27" height="520" x="142" y="40" style="fill:rgb(230,230,230);stroke:none"/>
<text x="147" y="575" fill="rgb(0,0,0)" font-family="Arial" font-size="12">17</text>
<text x="174" y="575" fill="rgb(0,0,0)" font-family="Arial" font-size="12">18</text>
<rect width="27" height="520" x="196" y="40" style="fill:rgb(230,230,230);stroke:none"/>
<text x="201" y="575" fill="rgb(0,0,0)" font-family="Arial" font-size="12">19</text>
<text x="228" y="575" fill="rgb(0,0,0)" font-family="Arial" font-size="12">20</text>
<rect width="27" height="520" x="250" y="40" style="fill:rgb(230,230,230);stroke:none"/>
<text x="255" y="575" fill="rgb(0,0,0)" font-family="Arial" font-size="12">21</text>
<text x="282" y="575" fill="rgb(0,0,0)" font-family="Arial" font-size="12">22</text>
<rect width="27" height="520" x="304" y="40" style="fill:rgb(230,230,230);stroke:none"/>
<text x="309" y="575" fill="rgb(0,0,0)" font-family="Arial" font-size="12">23</text>
<text x="336" y="575" fill="rgb(0,0,0)" font-family="Arial" font-size="12">24</text>
<rect width="27" height="520" x="358" y="40" style="fill:rgb(230,230,230);stroke:none"/>
<text x="363" y="575" fill="rgb(0,0,0)" font-family="Arial" font-size="12">25</text>
<text x="390" y="575" fill="rgb(0,0,0)" font-family="Arial" font-size="12">26</text>
<rect width="27" height="520" x="412" y="40" style="fill:rgb(230,230,230);stroke:none"/>
<text x="417" y="575" fill="rgb(0,0,0)" font-family="Arial" font-size="12">27</text>
<text x="444" y="575" fill="rgb(0,0,0)" font-family="Arial" font-size="12">28</text>
<rect width="27" height="520" x="466" y="40" style="fill:rgb(230,230,230);stroke:none"/>
<text x="471" y="575" fill="rgb(0,0,0)" font-family="Arial" font-size="12">29</text>
<text x="498" y="575" fill="rgb(0,0,0)" font-family="Arial" font-size="12">30</text>
<rect width="27" height="520" x="520" y="40" style="fill:rgb(230,230,230);stroke:none"/>
<text x="525" y="575" fill="rgb(0,0,0)" font-family="Arial" font-size="12">31</text>
<text x="552" y="575" fill="rgb(0,0,0)" font-family="Arial" font-size="12">32</text>
<rect width="27" height="520" x="574" y="40" style="fill:rgb(230,230,230);stroke:none"/>
<text x="579" y="575" fill="rgb(0,0,0)" font-family="Arial" font-size="12">33</text>
<text x="606" y="575" fill="rgb(0,0,0)" font-family="Arial" font-size="12">34</text>
<rect width="27" height="520" x="628" y="40" style="fill:rgb(230,230,230);stroke:none"/>
<text x="633" y="575" fill="rgb(0,0,0)" font-family="Arial" font-size="12">35</text>
<text x="660" y="575" fill="rgb(0,0,0)" font-family="Arial" font-size="12">36</text>
<rect width="27" height="520" x="682" y="40" style="fill:rgb(230,230,230);stroke:none"/>
<text x="687" y="575" fill="rgb(0,0,0)" font-family="Arial" font-size="12">37</text>
<text x="714" y="575" fill="rgb(0,0,0)" font-family="Arial" font-size="12">38</text>
<rect width="27" height="520" x="736" y="40" style="fill:rgb(230,230,230);stroke:none"/>
<text x="741" y="575" fill="rgb(0,0,0)" font-family="Arial" font-size="12">39</text>
<text x="768" y="575" fill="rgb(0,0,0)" font-family="Arial" font-size="12">40</text>
<line x1="61" y1="560" x2="790" y2="560" stroke="rgb(180,180,180)" stroke-width="1"/>
<line x1="61" y1="507" x2="790" y2="507" stroke="rgb(180,180,180)" stroke-width="1"/>
<line x1="61" y1="453" x2="790" y2="453" stroke="rgb(180,180,180)" stroke-width="1"/>
<line x1="61" y1="400" x2="790" y2="400" stroke="rgb(180,180,180)" stroke-width="1"/>
<line x1="61" y1="346" x2="790" y2="346" stroke="rgb(180,180,180)" stroke-width="1"/>
<line x1="61" y1="293" x2="790" y2="293" stroke="rgb(180,180,180)" stroke-width="1"/>
<line x1="61" y1="239" x2="790" y2="239" stroke="rgb(180,180,180)" stroke-width="1"/>
<line x1="61" y1="186" x2="790" y2="186" stroke="rgb(180,180,180)" stroke-width="1"/>
<line x1="61" y1="132" x2="790" y2="132" stroke="rgb(180,180,180)" stroke-width="1"/>
<line x1="61" y1="78" x2="790" y2="78" stroke="rgb(180,180,180)" stroke-width="1"/>
<line x1="74" y1="560" x2="101" y2="560" stroke="rgb(136,34,85)" stroke-width="1"/>
<line x1="101" y1="560" x2="128" y2="560" stroke="rgb(136,34,85)" stroke-width="1"/>
<line x1="128" y1="560" x2="155" y2="560" stroke="rgb(136,34,85)" stroke-width="1"/>
<line x1="155" y1="560" x2="182" y2="560" stroke="rgb(136,34,85)" stroke-width="1"/>
<line x1="182" y1="560" x2="209" y2="560" stroke="rgb(136,34,85)" stroke-width="1"/>
<line x1="209" y1="560" x2="236" y2="560" stroke="rgb(136,34,85)" stroke-width="1"/>
<line x1="236" y1="560" x2="263" y2="560" stroke="rgb(136,34,85)" stroke-width="1"/>
<line x1="263" y1="560" x2="290" y2="560" stroke="rgb(136,34,85)" stroke-width="1"/>
<line x1="290" y1="560" x2="317" y2="560" stroke="rgb(136,34,85)" stroke-width="1"/>
<line x1="317" y1="560" x2="344" y2="560" stroke="rgb(136,34,85)" stroke-width="1"/>
<line x1="344" y1="560" x2="371" y2="560" stroke="rgb(136,34,85)" stroke-width="1"/>
<line x1="371" y1="560" x2="398" y2="559" stroke="rgb(136,34,85)" stroke-width="1"/>
<line x1="398" y1="559" x2="425" y2="557" stroke="rgb(136,34,85)" stroke-width="1"/>
<line x1="425" y1="557" x2="452" y2="555" stroke="rgb(136,34,85)" stroke-width="1"/>
<line x1="452" y1="555" x2="479" y2="552" stroke="rgb(136,34,85)" stroke-width="1"/>
<line x1="479" y1="552" x2="506" y2="548" stroke="rgb(136,34,85)" stroke-width="1"/>
<line x1="506" y1="548" x2="533" y2="542" stroke="rgb(136,34,85)" stroke-width="1"/>
<line x1="533" y1="542" x2="560" y2="536" stroke="rgb(136,34,85)" stroke-width="1"/>
<line x1="560" y1="536" x2="587" y2="527" stroke="rgb(136,34,85)" stroke-width="1"/>
<line x1="587" y1="527" x2="614" y2="517" stroke="rgb(136,34,85)" stroke-width="1"/>
<line x1="614" y1="517" x2="641" y2="503" stroke="rgb(136,34,85)" stroke-width="1"/>
<line x1="641" y1="503" x2="668" y2="484" stroke="rgb(136,34,85)" stroke-width="1"/>
<line x1="668" y1="484" x2="695" y2="448" stroke="rgb(136,34,85)" stroke-width="1"/>
<line x1="695" y1="448" x2="722" y2="361" stroke="rgb(136,34,85)" stroke-width="1"/>
<line x1="722" y1="361" x2="749" y2="40" stroke="rgb(136,34,85)" stroke-width="1"/>
<line x1="749" y1="40" x2="776" y2="74" stroke="rgb(136,34,85)" stroke-width="1"/>
<rect width="183" height="23" x="607" y="40" style="fill:rgb(255,255,255);stroke:none"/>
<rect width="183" height="23" x="607" y="40" rx="0" ry="0" style="fill:none;stroke-width:1;stroke:rgb(192,192,192)"/>
<text x="610" y="55" fill="rgb(136,34,85)" font-family="Arial" font-size="12" font-weight="bold">Average Quality per read</text>
</svg>
