<?xml version="1.0" standalone="no"?>
<!DOCTYPE svg PUBLIC "-//W3C//DTD SVG 1.1//EN" "http://www.w3.org/Graphics/SVG/1.1/DTD/svg11.dtd">
<svg width="800" height="600" version="1.1" xmlns="http://www.w3.org/2000/svg">
<rect width="800" height="600" x="0" y="0" style="fill:rgb(238,238,238);stroke:none"/>
<rect width="800" height="600" x="0" y="0" style="fill:rgb(255,255,255);stroke:none"/>
<text x="2" y="566" fill="rgb(0,0,0)" font-family="Arial" font-size="12">0</text>
<text x="2" y="509" fill="rgb(0,0,0)" font-family="Arial" font-size="12">2000000</text>
<text x="2" y="452" fill="rgb(0,0,0)" font-family="Arial" font-size="12">4000000</text>
<text x="2" y="395" fill="rgb(0,0,0)" font-family="Arial" font-size="12">6000000</text>
<text x="2" y="338" fill="rgb(0,0,0)" font-family="Arial" font-size="12">8000000</text>
<text x="2" y="281" fill="rgb(0,0,0)" font-family="Arial" font-size="12">1.0E7</text>
<text x="2" y="224" fill="rgb(0,0,0)" font-family="Arial" font-size="12">1.2E7</text>
<text x="2" y="167" fill="rgb(0,0,0)" font-family="Arial" font-size="12">1.4E7</text>
<text x="2" y="110" fill="rgb(0,0,0)" font-family="Arial" font-size="12">1.6E7</text>
<text x="2" y="53" fill="rgb(0,0,0)" font-family="Arial" font-size="12">1.8E7</text>
<text x="286" y="30" fill="rgb(0,0,0)" font-family="Arial" font-size="12">Quality score distribution over all sequences</text>
<line x1="61" y1="560" x2="790" y2="560" stroke="rgb(0,0,0)" stroke-width="1"/>
<line x1="61" y1="560" x2="61" y2="40" stroke="rgb(0,0,0)" stroke-width="1"/>
<text x="281" y="595" fill="rgb(0,0,0)" font-family="Arial" font-size="12">Mean Sequence Quality (Phred Score)</text>
<text x="66" y="575" fill="rgb(0,0,0)" font-family="Arial" font-size="12">13</text>
<rect width="26" height="520" x="87" y="40" style="fill:rgb(230,230,230);stroke:none"/>
<text x="92" y="575" fill="rgb(0,0,0)" font-family="Arial" font-size="12">14</text>
<text x="118" y="575" fill="rgb(0,0,0)" font-family="Arial" font-size="12">15</text>
<rect width="26" height="520" x="139" y="40" style="fill:rgb(230,230,230);stroke:none"/>
<text x="144" y="575" fill="rgb(0,0,0)" font-family="Arial" font-size="12">16</text>
<text x="170" y="575" fill="rgb(0,0,0)" font-family="Arial" font-size="12">17</text>
<rect width="26" height="520" x="191" y="40" style="fill:rgb(230,230,230);stroke:none"/>
<text x="196" y="575" fill="rgb(0,0,0)" font-family="Arial" font-size="12">18</text>
<text x="222" y="575" fill="rgb(0,0,0)" font-family="Arial" font-size="12">19</text>
<rect width="26" height="520" x="243" y="40" style="fill:rgb(230,230,230);stroke:none"/>
<text x="248" y="575" fill="rgb(0,0,0)" font-family="Arial" font-size="12">20</text>
<text x="274" y="575" fill="rgb(0,0,0)" font-family="Arial" font-size="12">21</text>
<rect width="26" height="520" x="295" y="40" style="fill:rgb(230,230,230);stroke:none"/>
<text x="300" y="575" fill="rgb(0,0,0)" font-family="Arial" font-size="12">22</text>
<text x="326" y="575" fill="rgb(0,0,0)" font-family="Arial" font-size="12">23</text>
<rect width="26" height="520" x="347" y="40" style="fill:rgb(230,230,230);stroke:none"/>
<text x="352" y="575" fill="rgb(0,0,0)" font-family="Arial" font-size="12">24</text>
<text x="378" y="575" fill="rgb(0,0,0)" font-family="Arial" font-size="12">25</text>
<rect width="26" height="520" x="399" y="40" style="fill:rgb(230,230,230);stroke:none"/>
<text x="404" y="575" fill="rgb(0,0,0)" font-family="Arial" font-size="12">26</text>
<text x="430" y="575" fill="rgb(0,0,0)" font-family="Arial" font-size="12">27</text>
<rect width="26" height="520" x="451" y="40" style="fill:rgb(230,230,230);stroke:none"/>
<text x="456" y="575" fill="rgb(0,0,0)" font-family="Arial" font-size="12">28</text>
<text x="482" y="575" fill="rgb(0,0,0)" font-family="Arial" font-size="12">29</text>
<rect width="26" height="520" x="503" y="40" style="fill:rgb(230,230,230);stroke:none"/>
<text x="508" y="575" fill="rgb(0,0,0)" font-family="Arial" font-size="12">30</text>
<text x="534" y="575" fill="rgb(0,0,0)" font-family="Arial" font-size="12">31</text>
<rect width="26" height="520" x="555" y="40" style="fill:rgb(230,230,230);stroke:none"/>
<text x="560" y="575" fill="rgb(0,0,0)" font-family="Arial" font-size="12">32</text>
<text x="586" y="575" fill="rgb(0,0,0)" font-family="Arial" font-size="12">33</text>
<rect width="26" height="520" x="607" y="40" style="fill:rgb(230,230,230);stroke:none"/>
<text x="612" y="575" fill="rgb(0,0,0)" font-family="Arial" font-size="12">34</text>
<text x="638" y="575" fill="rgb(0,0,0)" font-family="Arial" font-size="12">35</text>
<rect width="26" height="520" x="659" y="40" style="fill:rgb(230,230,230);stroke:none"/>
<text x="664" y="575" fill="rgb(0,0,0)" font-family="Arial" font-size="12">36</text>
<text x="690" y="575" fill="rgb(0,0,0)" font-family="Arial" font-size="12">37</text>
<rect width="26" height="520" x="711" y="40" style="fill:rgb(230,230,230);stroke:none"/>
<text x="716" y="575" fill="rgb(0,0,0)" font-family="Arial" font-size="12">38</text>
<text x="742" y="575" fill="rgb(0,0,0)" font-family="Arial" font-size="12">39</text>
<rect width="26" height="520" x="763" y="40" style="fill:rgb(230,230,230);stroke:none"/>
<text x="768" y="575" fill="rgb(0,0,0)" font-family="Arial" font-size="12">40</text>
<line x1="61" y1="560" x2="790" y2="560" stroke="rgb(180,180,180)" stroke-width="1"/>
<line x1="61" y1="503" x2="790" y2="503" stroke="rgb(180,180,180)" stroke-width="1"/>
<line x1="61" y1="446" x2="790" y2="446" stroke="rgb(180,180,180)" stroke-width="1"/>
<line x1="61" y1="389" x2="790" y2="389" stroke="rgb(180,180,180)" stroke-width="1"/>
<line x1="61" y1="332" x2="790" y2="332" stroke="rgb(180,180,180)" stroke-width="1"/>
<line x1="61" y1="275" x2="790" y2="275" stroke="rgb(180,180,180)" stroke-width="1"/>
<line x1="61" y1="218" x2="790" y2="218" stroke="rgb(180,180,180)" stroke-width="1"/>
<line x1="61" y1="161" x2="790" y2="161" stroke="rgb(180,180,180)" stroke-width="1"/>
<line x1="61" y1="104" x2="790" y2="104" stroke="rgb(180,180,180)" stroke-width="1"/>
<line x1="61" y1="47" x2="790" y2="47" stroke="rgb(180,180,180)" stroke-width="1"/>
<line x1="74" y1="560" x2="100" y2="560" stroke="rgb(136,34,85)" stroke-width="1"/>
<line x1="100" y1="560" x2="126" y2="560" stroke="rgb(136,34,85)" stroke-width="1"/>
<line x1="126" y1="560" x2="152" y2="560" stroke="rgb(136,34,85)" stroke-width="1"/>
<line x1="152" y1="560" x2="178" y2="560" stroke="rgb(136,34,85)" stroke-width="1"/>
<line x1="178" y1="560" x2="204" y2="560" stroke="rgb(136,34,85)" stroke-width="1"/>
<line x1="204" y1="560" x2="230" y2="560" stroke="rgb(136,34,85)" stroke-width="1"/>
<line x1="230" y1="560" x2="256" y2="560" stroke="rgb(136,34,85)" stroke-width="1"/>
<line x1="256" y1="560" x2="282" y2="560" stroke="rgb(136,34,85)" stroke-width="1"/>
<line x1="282" y1="560" x2="308" y2="560" stroke="rgb(136,34,85)" stroke-width="1"/>
<line x1="308" y1="560" x2="334" y2="560" stroke="rgb(136,34,85)" stroke-width="1"/>
<line x1="334" y1="560" x2="360" y2="560" stroke="rgb(136,34,85)" stroke-width="1"/>
<line x1="360" y1="560" x2="386" y2="560" stroke="rgb(136,34,85)" stroke-width="1"/>
<line x1="386" y1="560" x2="412" y2="560" stroke="rgb(136,34,85)" stroke-width="1"/>
<line x1="412" y1="560" x2="438" y2="559" stroke="rgb(136,34,85)" stroke-width="1"/>
<line x1="438" y1="559" x2="464" y2="559" stroke="rgb(136,34,85)" stroke-width="1"/>
<line x1="464" y1="559" x2="490" y2="558" stroke="rgb(136,34,85)" stroke-width="1"/>
<line x1="490" y1="558" x2="516" y2="557" stroke="rgb(136,34,85)" stroke-width="1"/>
<line x1="516" y1="557" x2="542" y2="555" stroke="rgb(136,34,85)" stroke-width="1"/>
<line x1="542" y1="555" x2="568" y2="554" stroke="rgb(136,34,85)" stroke-width="1"/>
<line x1="568" y1="554" x2="594" y2="552" stroke="rgb(136,34,85)" stroke-width="1"/>
<line x1="594" y1="552" x2="620" y2="550" stroke="rgb(136,34,85)" stroke-width="1"/>
<line x1="620" y1="550" x2="646" y2="547" stroke="rgb(136,34,85)" stroke-width="1"/>
<line x1="646" y1="547" x2="672" y2="543" stroke="rgb(136,34,85)" stroke-width="1"/>
<line x1="672" y1="543" x2="698" y2="537" stroke="rgb(136,34,85)" stroke-width="1"/>
<line x1="698" y1="537" x2="724" y2="522" stroke="rgb(136,34,85)" stroke-width="1"/>
<line x1="724" y1="522" x2="750" y2="458" stroke="rgb(136,34,85)" stroke-width="1"/>
<line x1="750" y1="458" x2="776" y2="40" stroke="rgb(136,34,85)" stroke-width="1"/>
<rect width="183" height="23" x="607" y="40" style="fill:rgb(255,255,255);stroke:none"/>
<rect width="183" height="23" x="607" y="40" rx="0" ry="0" style="fill:none;stroke-width:1;stroke:rgb(192,192,192)"/>
<text x="610" y="55" fill="rgb(136,34,85)" font-family="Arial" font-size="12" font-weight="bold">Average Quality per read</text>
</svg>
